<svg xmlns="http://www.w3.org/2000/svg" width="13.314" height="17.936" viewBox="0 0 13.314 17.936">
  <g id="Vegetable" transform="translate(-18.325 -0.702)">
    <path id="패스_90" data-name="패스 90" d="M51.573,12.114c3.111-3.1,4.543-7.207,2.84-11.071a.621.621,0,0,0-.938-.2,12.293,12.293,0,0,0-3.531,5.446,8.5,8.5,0,0,0-.4,3.043,5.4,5.4,0,0,0,.519,2.1,12.167,12.167,0,0,0,.4,6.166c.222.661,1.531.38,1.284-.28a10.975,10.975,0,0,1-.617-5.025A.514.514,0,0,0,51.573,12.114ZM50.56,9.331V9.01a8.361,8.361,0,0,1,.494-2.683,11.679,11.679,0,0,1,2.593-4.2,8.508,8.508,0,0,1-2.2,8.389c0-.04.025-.08.025-.12A26.046,26.046,0,0,1,52.56,7.108a16.3,16.3,0,0,0,1.185-3.3c.025-.12-.222-.2-.321-.1a9.219,9.219,0,0,0-1.951,3.163A17.756,17.756,0,0,0,50.56,9.331Z" transform="translate(-23.5 0)" fill="#79f626"/>
    <path id="패스_91" data-name="패스 91" d="M23.578,23.135A10.189,10.189,0,0,0,21.01,17.93a.614.614,0,0,0-.938,0,7.926,7.926,0,0,0-1.63,6.226,6.294,6.294,0,0,0,3.087,4.785,8.005,8.005,0,0,0,3.408,3.223c.667.34,1.284-.521.617-.861a7.046,7.046,0,0,1-2.691-2.262.541.541,0,0,0,.1-.2A16.53,16.53,0,0,0,23.578,23.135ZM21.9,27.3a9.746,9.746,0,0,1-.42-1.662,10.553,10.553,0,0,0-.272-2.663.318.318,0,0,0-.519-.06,4.337,4.337,0,0,0-.222,2.9,8.689,8.689,0,0,0,.346,1.582,7.361,7.361,0,0,1-.272-8.369,8.321,8.321,0,0,1,1.852,4.324A10.732,10.732,0,0,1,21.9,27.3Z" transform="translate(0 -13.604)" fill="#79f626"/>
  </g>
</svg>
