<svg xmlns="http://www.w3.org/2000/svg" width="17.322" height="17.322" viewBox="0 0 17.322 17.322">
  <path id="iconmonstr-candy-6" d="M17.321,8.769A8.661,8.661,0,0,1,0,8.661c2.862.769,5.544-1.438,4.33-4.33C7.7,4.8,9.281,2.606,8.717,0A8.663,8.663,0,0,1,17.321,8.769ZM6.079,5.793a4.659,4.659,0,0,1-4.462,4.45A7.218,7.218,0,1,0,10.23,1.614,4.6,4.6,0,0,1,6.079,5.793ZM9.744,12.27a1.083,1.083,0,1,1-1.083,1.083A1.083,1.083,0,0,1,9.744,12.27Zm-3.97-2.059A1.443,1.443,0,1,1,4.33,11.654a1.444,1.444,0,0,1,1.443-1.443Zm7.217-1.55A1.443,1.443,0,1,1,11.548,10.1,1.444,1.444,0,0,1,12.991,8.661Zm-3.609,0a.722.722,0,1,1-.722.722A.722.722,0,0,1,9.383,8.661Zm1.8-3.609A1.083,1.083,0,1,1,10.1,6.135,1.083,1.083,0,0,1,11.187,5.052Zm-9.022,0a.722.722,0,1,1-.722.722A.722.722,0,0,1,2.165,5.052ZM1.083,2.165A1.083,1.083,0,1,1,0,3.248,1.083,1.083,0,0,1,1.083,2.165ZM5.413.722A1.083,1.083,0,1,1,4.33,1.8,1.083,1.083,0,0,1,5.413.722ZM2.887,0a.722.722,0,1,1-.722.722A.722.722,0,0,1,2.887,0Z" fill="#f88a2c" fill-rule="evenodd"/>
</svg>
