<svg xmlns="http://www.w3.org/2000/svg" width="12.072" height="19.618" viewBox="0 0 12.072 19.618">
  <g id="Fridge" transform="translate(-16 -6)">
    <g id="그룹_2" data-name="그룹 2" transform="translate(16 6)">
      <path id="패스_64" data-name="패스 64" d="M27.318,6H16.755A.755.755,0,0,0,16,6.755V24.109a.755.755,0,0,0,.755.755h.755a.755.755,0,0,0,1.509,0h6.036a.755.755,0,0,0,1.509,0h.755a.755.755,0,0,0,.755-.755V6.755A.755.755,0,0,0,27.318,6Zm-.755,1.509v5.282H17.509V7.509ZM17.509,23.354V14.3h9.054v9.054Z" transform="translate(-16 -6)" fill="#2f75ff"/>
      <path id="패스_65" data-name="패스 65" d="M22.755,15.773a.755.755,0,0,0,.755-.755V12.755a.755.755,0,1,0-1.509,0v2.264A.755.755,0,0,0,22.755,15.773Z" transform="translate(-19.736 -9.736)" fill="#2f75ff"/>
      <path id="패스_66" data-name="패스 66" d="M22.755,30a.755.755,0,0,0-.755.755v3.018a.755.755,0,0,0,1.509,0V30.755A.755.755,0,0,0,22.755,30Z" transform="translate(-19.736 -20.946)" fill="#2f75ff"/>
    </g>
  </g>
</svg>
