<svg xmlns="http://www.w3.org/2000/svg" width="19.047" height="15.872" viewBox="0 0 19.047 15.872">
  <path id="iconmonstr-fast-food-16" d="M17.637,12.26c-.5.248-.962.374-1.214.9a1.464,1.464,0,0,0,.325,1.636c.41.572-.175.9-.875.915V9.023l.23-.209v.008c.34.122.4.28.428.643.058.794-.064,1.538.966,2.19.358.213.569.377.14.6M14.285,8.125v8.16H4.762V8.125A2.359,2.359,0,0,1,3.2,5.769c.117-2.058,4.066-2.186,6.219-2.2,2.308,0,6.472.286,6.472,2.434a2.507,2.507,0,0,1-1.606,2.123M2.752,15.764a1.863,1.863,0,0,0-.487-1.278,3.553,3.553,0,0,0-.779-.57c-.424-.275-.316-.575.085-.865.194-.136.4-.26.583-.411a1.512,1.512,0,0,0,.589-1.54,2.813,2.813,0,0,0-.478-.9A.866.866,0,0,1,2.94,8.79h0l.234.234v6.965c-.218,0-.385-.013-.422-.225m15.714-4.912c-.46-.311-.679-.3-.721-.849-.052-.856-.008-1.594-.848-2.112h0a3.434,3.434,0,0,0,.535-2.525C16.9,2.487,12.585,2.021,9.657,2c-3.641-.007-8.011.341-8.049,3.894A3.374,3.374,0,0,0,2.126,7.8H2.118A2.094,2.094,0,0,0,.855,9.652a2.545,2.545,0,0,0,.6,1.485c.175.267.232.371-.183.677-.711.494-1.282.842-1.275,1.759.008.84.526,1.133,1.182,1.556.414.276.329.366.388.785a1.5,1.5,0,0,0,1.7,1.275l0-.014c.166.552.536.69,1.111.7H14.744c.7,0,1.063-.277,1.133-.967h0c1.428-.034,2.134-.8,2.2-1.644a1.921,1.921,0,0,0-.537-1.4c-.106-.171-.034-.219.142-.309.759-.371,1.368-.623,1.368-1.555a1.3,1.3,0,0,0-.58-1.148" transform="translate(0 -2)" fill="#ffbe0b" fill-rule="evenodd"/>
</svg>
