<svg xmlns="http://www.w3.org/2000/svg" width="15.479" height="20.307" viewBox="0 0 15.479 20.307">
  <g id="Chickjen" transform="translate(-19.3 -9.748)">
    <path id="패스_67" data-name="패스 67" d="M27.039,30.055c6.4,0,7.739-3.151,7.739-5.8a11.36,11.36,0,0,0-2.218-6.378,10.068,10.068,0,0,0-1.538-1.689c.756-1.336,1.084-2.723.277-3.353h0a1.485,1.485,0,0,0-1.462-.1c-.1-1.26-.555-2.042-1.311-2.218a1.744,1.744,0,0,0-1.714.882c-.731-1.21-1.563-1.815-2.37-1.613-.5.126-1.109.605-1.286,2.118a10.5,10.5,0,0,0,.328,3.429,2.754,2.754,0,0,0,.126.429A9.006,9.006,0,0,0,21.493,17.9,11.263,11.263,0,0,0,19.3,24.282C19.3,26.9,20.636,30.055,27.039,30.055Zm0-2.218C26.081,26.9,25,25.568,25,24.862a2.042,2.042,0,1,1,4.084,0C29.081,25.568,28,26.9,27.039,27.837ZM24.418,12.005c.076-.781.3-1.008.353-1.034H24.8c.151,0,.781.429,1.412,1.941a.6.6,0,0,0,.555.378.615.615,0,0,0,.58-.353c.454-.933.832-1.185.933-1.21.126.1.4.706.328,2.017a.594.594,0,0,0,.328.58.57.57,0,0,0,.655-.05,1.822,1.822,0,0,1,.933-.454,3.154,3.154,0,0,1-.5,1.613,5.482,5.482,0,0,0-5.294-.328c0-.025-.025-.05-.025-.076A9.439,9.439,0,0,1,24.418,12.005Zm2.622,3.807c3.429,0,6.5,4.714,6.5,8.445,0,3.958-3.681,4.462-5.723,4.538,2.37-2.218,2.5-3.681,2.5-3.958a3.3,3.3,0,0,0-6.6,0c0,.277.126,1.739,2.5,3.958-2.017-.076-5.7-.58-5.723-4.538C20.535,20.526,23.586,15.812,27.039,15.812Z" fill="#fe40a6"/>
    <circle id="타원_12" data-name="타원 12" cx="0.882" cy="0.882" r="0.882" transform="translate(22.703 19.845)" fill="#fe40a6"/>
    <circle id="타원_13" data-name="타원 13" cx="0.882" cy="0.882" r="0.882" transform="translate(29.611 19.845)" fill="#fe40a6"/>
  </g>
</svg>
