<svg xmlns="http://www.w3.org/2000/svg" width="19.359" height="13.828" viewBox="0 0 19.359 13.828">
  <g id="Steak" transform="translate(-2 -6)">
    <path id="패스_68" data-name="패스 68" d="M21.29,10.036A4.812,4.812,0,0,0,16.519,6h-8.3a6.221,6.221,0,0,0-6.177,5.448A6.355,6.355,0,0,0,2,12.222v1.383a6.229,6.229,0,0,0,6.223,6.223h3a3.439,3.439,0,0,0,2.445-1.013l1.145-1.144a2.06,2.06,0,0,1,1.467-.608h.237a4.846,4.846,0,0,0,4.84-4.84V10.84a4.4,4.4,0,0,0-.069-.8Zm-1.314,2.187a3.461,3.461,0,0,1-3.457,3.457h-.237a3.439,3.439,0,0,0-2.445,1.013l-1.145,1.144a2.06,2.06,0,0,1-1.467.608h-3a4.847,4.847,0,0,1-4.637-3.463,6.223,6.223,0,0,0,4.637,2.08h1.62a3.439,3.439,0,0,0,2.445-1.013l1.145-1.144A2.06,2.06,0,0,1,14.9,14.3h1.62a4.836,4.836,0,0,0,1.614-.277.691.691,0,1,0-.462-1.3,3.457,3.457,0,0,1-1.152.2H14.9a3.439,3.439,0,0,0-2.445,1.013L11.31,15.071a2.06,2.06,0,0,1-1.467.608H8.223A4.84,4.84,0,0,1,3.432,11.54c.009-.064.021-.126.032-.188s.025-.148.041-.221.039-.145.059-.218.037-.138.059-.207.053-.144.08-.216.048-.129.075-.192.069-.138.1-.207.056-.12.088-.177.082-.138.124-.207c.032-.053.063-.107.1-.159.046-.069.1-.138.146-.2.036-.048.069-.1.107-.144.053-.069.111-.129.168-.193.037-.043.074-.087.113-.128.061-.063.125-.122.189-.181.04-.038.079-.077.12-.113.069-.059.138-.113.207-.167.042-.032.082-.069.126-.1.073-.053.149-.1.224-.15.044-.029.087-.06.132-.087.078-.047.159-.088.239-.131.046-.024.091-.051.138-.075.082-.04.167-.074.251-.11.049-.02.1-.044.145-.062.086-.033.174-.059.262-.088.05-.016.1-.035.15-.049.091-.026.185-.045.277-.066.05-.011.1-.025.149-.035.1-.018.2-.029.3-.041.048-.006.1-.015.145-.02a4.3,4.3,0,0,1,.45-.024h8.3a3.483,3.483,0,0,1,.622.055,3.436,3.436,0,0,1,2.784,2.835,3.06,3.06,0,0,1,.05.567Z" transform="translate(0 0)" fill="#f82d48"/>
    <path id="패스_69" data-name="패스 69" d="M10.946,10.2a.691.691,0,0,0-.978,0L7.2,12.968a.691.691,0,1,0,.978.978l2.765-2.766A.691.691,0,0,0,10.946,10.2Z" transform="translate(-1.543 -1.235)" fill="#f82d48"/>
    <path id="패스_70" data-name="패스 70" d="M15.351,10.2,11.2,14.351a.691.691,0,1,0,.978.978l4.148-4.148a.691.691,0,1,0-.978-.978Z" transform="translate(-2.777 -1.234)" fill="#f82d48"/>
    <path id="패스_71" data-name="패스 71" d="M22.585,10.2,21.2,11.585a.691.691,0,1,0,.978.978l1.383-1.383a.691.691,0,1,0-.978-.978Z" transform="translate(-5.864 -1.234)" fill="#f82d48"/>
  </g>
</svg>
