<svg xmlns="http://www.w3.org/2000/svg" width="36.772" height="29.739" viewBox="0 0 36.772 29.739"><defs><style>.a{fill:#9d9090;}.b{fill:#353131;}.c{fill:#e84e0a;}</style></defs><g transform="translate(0.031)"><g transform="translate(-0.031)"><circle class="a" cx="5.47" cy="5.47" r="5.47" transform="translate(13.168 3.071)"/><rect class="b" width="2.752" height="11.164" rx="1.376" transform="translate(17.188)"/><path class="b" d="M26.022,84.6a16.866,16.866,0,0,1-12.246-5.119,18.282,18.282,0,0,1-3.639-5.168,1.273,1.273,0,0,1,2.345-.992,16.088,16.088,0,0,0,3.171,4.453,14.175,14.175,0,0,0,10.482,4.285c9.843-.068,13.636-8.656,13.672-8.744a1.275,1.275,0,0,1,2.343,1,18.25,18.25,0,0,1-3.639,5.119A17.282,17.282,0,0,1,26.154,84.6Z" transform="translate(-7.582 -54.859)"/><path class="b" d="M131.875,70.441a1.263,1.263,0,0,1-.768-.258l-3.149-2.377a1.273,1.273,0,0,1,1.533-2.033l3.152,2.377a1.275,1.275,0,0,1-.768,2.291Z" transform="translate(-96.377 -49.547)"/><path class="b" d="M1.251,70.564A1.272,1.272,0,0,1,.52,68.243L3.764,66A1.277,1.277,0,1,1,5.227,68.09L1.975,70.337A1.265,1.265,0,0,1,1.251,70.564Z" transform="translate(0.031 -49.735)"/><path class="c" d="M95.57,73.912l-2.706-3.127a3.8,3.8,0,0,0-5.346-.39h0a3.8,3.8,0,0,0-.38,5.348l2.438,2.82A15.5,15.5,0,0,0,95.57,73.912Z" transform="translate(-65.192 -52.542)"/></g></g></svg>